<?xml version="1.0" encoding="utf-8"?>
<!-- Generator: Adobe Illustrator 19.0.0, SVG Export Plug-In . SVG Version: 6.00 Build 0)  -->
<svg version="1.1" id="Layer_1" xmlns="http://www.w3.org/2000/svg" xmlns:xlink="http://www.w3.org/1999/xlink" x="0px" y="0px"
	 viewBox="0 0 500 500" style="enable-background:new 0 0 500 500;" xml:space="preserve">
<style type="text/css">
	.st0{fill:#329545;}
	.st1{fill:#FDD43B;}
	.st2{fill:#FFFFFF;}
	.st3{fill:#144A99;}
</style>
<g id="XMLID_42_">
	<g id="XMLID_224_">
		<path id="path1948_5_" class="st0" d="M248.1,28.1c-18.1,0.1-35.3,1.6-50.5,4.3c-44.8,7.9-52.9,24.5-52.9,55v40.3h105.8v13.4
			H144.7H105c-30.7,0-57.7,18.5-66.1,53.6c-9.7,40.3-10.1,65.4,0,107.5c7.5,31.3,25.5,53.6,56.2,53.6h36.4v-48.3
			c0-34.9,30.2-65.7,66.1-65.7h105.6c29.4,0,52.9-24.2,52.9-53.7V87.4c0-28.7-24.2-50.2-52.9-55C285,29.4,266.2,28,248.1,28.1z
			 M190.9,60.5c10.9,0,19.8,9.1,19.8,20.2c0,11.1-8.9,20.1-19.8,20.1c-11,0-19.8-9-19.8-20.1C171.1,69.6,179.9,60.5,190.9,60.5z"/>
		<path id="path1950_6_" class="st1" d="M369.3,141.1v47c0,36.4-30.9,67.1-66.1,67.1H197.6c-28.9,0-52.9,24.8-52.9,53.7v100.7
			c0,28.7,24.9,45.5,52.9,53.7c33.5,9.8,65.6,11.6,105.6,0c26.6-7.7,52.9-23.2,52.9-53.7v-40.3H250.5v-13.4h105.6H409
			c30.7,0,42.2-21.4,52.9-53.6c11-33.1,10.6-65,0-107.5c-7.6-30.6-22.1-53.6-52.9-53.6H369.3z M309.9,396.2c11,0,19.8,9,19.8,20.1
			c0,11.1-8.9,20.2-19.8,20.2c-10.9,0-19.8-9.1-19.8-20.2C290,405.2,299,396.2,309.9,396.2z"/>
		<path id="XMLID_228_" class="st2" d="M263.4,359.5c-0.1-0.1-0.3-0.3-0.4-0.4c0.1,0.1,0.2,0.2,0.3,0.3L263.4,359.5z"/>
		<g id="XMLID_421_">
			<path id="XMLID_423_" class="st2" d="M95.9,273.2c-0.1-0.1-0.3-0.3-0.4-0.4c0.1,0.1,0.2,0.2,0.3,0.3L95.9,273.2z"/>
		</g>
	</g>
	<g id="XMLID_28_">
		<path id="XMLID_38_" class="st2" d="M267.7,182.7l0.7,0.7c0.2,0.2,0.2,0.3,0.2,0.3c0,0.3-0.2,0.6-0.5,0.6c0,0-0.1,0-0.2,0
			l-0.5-0.1c-0.3-0.1-0.6-0.1-0.9-0.2C266.8,183.5,267.2,183.1,267.7,182.7z"/>
	</g>
	<g id="XMLID_1_">
		<path id="XMLID_46_" class="st3" d="M246.8,231.7c-2.3-2.4-5-4.5-8-6.1c-1.1-0.6-2.1-1-3.2-1.5c0,0-6.1-3.1-6.8-25.4
			c-0.2-7.5-0.3-16.5,3.4-23.3c0.5-1,1.1-1.9,2-2.6c4.3-3.7,9-6.2,12.2-11.1c3.2-5,4.9-10.8,4.9-16.7c0-25.8-31.5-40.3-51.2-23.7
			c-3,2.5-5.5,5.7-7.4,9.1c-3.3,6.2-4.2,13-3.2,19.5c0,0,1.5,7.5-17.5,19.3c-16.8,10.4-25,7.6-26.6,6.9c-4.8-3-10.5-4.8-16.6-4.8
			c-25.9,0-40.3,31.6-23.6,51.2c2.5,3,5.6,5.5,9.1,7.3c11.3,6,24.6,4.3,34-3.2c0,0,6.7-5.3,26.6,5.4c15.7,8.4,18,16.7,18.3,19.8
			c0.8,8.4,2.1,15.6,8.1,22.1c16.3,17.8,45.4,10.2,52.2-12.4C256.6,251.7,254.9,240.3,246.8,231.7z M143.5,182.8
			c-3.9-3.6-13.5-3-21.8,2.5c1,1.1,1.7,2.5,1.8,4.1c0.2,3.6-2.6,6.6-6.2,6.8c-0.6,0-1.1,0-1.7-0.2c-0.1,0-0.3,0-0.5-0.1
			c-2.4-0.8-4,1-4.6,1.7c-4.3,8.3-4.4,16.9-0.1,21c-8.7-8.2-8.5-22.8,0.5-32.6c9.1-10,23.8-11.4,32.7-3.3L143.5,182.8z M201.7,127.6
			c9.1-10,23.8-11.4,32.7-3.3l-0.2,0c-3.9-3.6-13.5-3-21.8,2.5c1,1.1,1.7,2.5,1.8,4.1c0.2,3.6-2.6,6.6-6.2,6.8c-0.6,0-1.1,0-1.7-0.2
			c-0.1,0-0.2,0-0.5-0.1c-2.4-0.8-4,1-4.5,1.7c-4.3,8.3-4.4,16.9-0.1,21C192.5,152,192.7,137.5,201.7,127.6z M179,223.5
			c-16.3-8.8-18.8-16.1-19.1-18.3c0.2-2.7,0.1-5.3-0.4-7.9l0.1,0.2c0,0-1.3-7.1,17.4-18.7c16.7-10.4,24.4-8.3,25.8-7.8
			c0.9,0.6,1.9,1.2,2.8,1.7c1.9,1,3.8,1.8,5.8,2.4c2.3,2.2,6.5,8.4,7,24.8c0.5,16.5-4.4,22.9-7,25.1c-2.7,1.2-5.3,2.9-7.6,4.9
			C201.3,230.6,194.1,231.6,179,223.5z M239.6,232.3c-3.9-3.6-13.5-3-21.8,2.5c1,1.1,1.7,2.5,1.8,4.1c0.2,3.6-2.6,6.6-6.2,6.8
			c-0.6,0-1.1,0-1.7-0.2c-0.1,0-0.2,0-0.5-0.1c-2.4-0.8-4,0.9-4.6,1.7c-4.3,8.3-4.4,16.9-0.1,21c-8.7-8.2-8.5-22.8,0.5-32.7
			c9.1-10,23.8-11.4,32.7-3.3L239.6,232.3z"/>
		<g id="XMLID_41_">
			<path id="XMLID_52_" class="st2" d="M251.1,227.6c-2.8-2.9-6-5.4-9.5-7.3c-0.9-0.5-1.8-0.9-2.8-1.3c-0.8-1.2-3.6-6.1-4-20.4
				c-0.2-5.8-0.4-14.6,2.7-20.3c0.4-0.7,0.6-0.9,0.6-1c1.1-0.9,2.3-1.8,3.6-2.8c3.3-2.5,7-5.2,9.7-9.6c3.8-6,5.9-12.9,5.9-19.9
				c0-22.7-19.6-36.7-37.8-36.7c-8.6,0-16.6,2.9-23.2,8.5c-3.6,3-6.5,6.7-8.8,10.9c-3.7,7-5.1,14.8-3.9,22.7
				c-0.2,0.9-2.1,6-14.7,13.8c-9.7,6-15.7,6.9-18.4,6.9c-1.3,0-2.1-0.2-2.4-0.3c-5.8-3.6-12.5-5.5-19.3-5.5
				c-14.3,0-26.9,8.3-33.1,21.6c-6.2,13.4-4.3,28.5,5,39.4c3,3.6,6.7,6.5,10.8,8.7c5.3,2.8,11.3,4.3,17.3,4.3
				c8.2,0,16.3-2.8,22.8-7.8c0.3-0.1,1.1-0.3,2.4-0.3c3.1,0,8.8,1,18,6c13.8,7.4,15.1,13.9,15.2,15.1c0.8,8.5,2.2,17.5,9.6,25.6
				c6.9,7.6,16.4,11.8,26.6,11.8c7.7,0,15.4-2.5,21.8-7c6.7-4.8,11.6-11.5,14-19.5C263.2,250.5,260.1,237.2,251.1,227.6z
				 M253.6,261.7c-4.2,14-17.1,22.2-30.1,22.2c-8,0-16-3.1-22.2-9.8c-6-6.5-7.3-13.7-8.1-22.1c-0.3-3.1-2.6-11.4-18.3-19.8
				c-10-5.4-16.6-6.7-20.8-6.7c-4.1,0-5.8,1.3-5.8,1.3c-5.5,4.4-12.4,6.8-19.4,6.8c-4.9,0-9.9-1.2-14.5-3.6
				c-3.4-1.8-6.5-4.3-9.1-7.3c-16.7-19.6-2.3-51.2,23.6-51.2c6.1,0,11.8,1.8,16.6,4.8c0.6,0.3,2.3,0.9,5.1,0.9
				c4.3,0,11.3-1.5,21.5-7.8c18.9-11.8,17.5-19.3,17.5-19.3c-1-6.5-0.1-13.3,3.2-19.5c1.8-3.5,4.3-6.6,7.4-9.1
				c5.8-4.9,12.6-7.1,19.4-7.1c16.1,0,31.8,12.6,31.8,30.8c0,5.9-1.7,11.7-4.9,16.7c-3.1,4.9-7.9,7.4-12.2,11.1
				c-0.8,0.7-1.4,1.6-2,2.6c-3.7,6.8-3.6,15.8-3.4,23.3c0.6,22.3,6.8,25.4,6.8,25.4c1.1,0.4,2.2,0.9,3.2,1.5c3,1.6,5.7,3.6,8,6.1
				C254.9,240.3,256.6,251.7,253.6,261.7z"/>
			<path id="XMLID_58_" class="st2" d="M110.9,186.1c-9,9.9-9.2,24.4-0.5,32.6c-4.3-4.1-4.2-12.8,0.1-21c0.5-0.6,1.6-1.9,3.4-1.9
				c0.4,0,0.8,0.1,1.2,0.2c0.2,0.1,0.3,0.1,0.4,0.1c0,0,0,0,0.1,0c0.5,0.1,0.9,0.2,1.4,0.2c0.1,0,0.2,0,0.2,0
				c3.6-0.2,6.4-3.2,6.2-6.8c-0.1-1.6-0.7-3-1.8-4.1c4.9-3.2,10.2-4.8,14.6-4.8c3.1,0,5.6,0.8,7.3,2.2l0.1,0
				c-3.9-3.6-8.9-5.3-14-5.3C123,177.5,116,180.4,110.9,186.1z"/>
			<path id="XMLID_64_" class="st2" d="M211.3,224.8c2.6-2.2,7.5-8.6,7-25.1c-0.4-16.4-4.7-22.6-7-24.8c-2-0.6-3.9-1.4-5.8-2.4
				c-1-0.5-1.9-1.1-2.8-1.7c-0.5-0.2-1.6-0.5-3.6-0.5c-3.9,0-11,1.4-22.2,8.3c-18.7,11.6-17.4,18.7-17.4,18.7l-0.1-0.2
				c0.5,2.6,0.6,5.3,0.4,7.9c0.4,2.2,2.8,9.5,19.1,18.3c10.2,5.5,16.8,6.8,20.8,6.8c1.9,0,3.2-0.3,4-0.6
				C206.1,227.7,208.6,226.1,211.3,224.8z M199.8,224.4c-2.5,0-8.1-0.8-18-6.1c-8.3-4.5-12.3-8.3-14.3-10.8l-1.9-10.4
				c0.4-1.1,2.5-5.9,14.5-13.3c10.4-6.5,16.4-7.4,19-7.4c0.5,0,0.9,0,1.1,0.1c0.8,0.5,1.7,1,2.5,1.5c1.7,0.9,3.4,1.7,5.2,2.3
				c1.4,1.9,4.1,7.3,4.4,19.8c0.4,13.2-2.9,18.3-4.5,20c-2.5,1.2-4.8,2.7-6.9,4.4C200.7,224.3,200.3,224.4,199.8,224.4z"/>
		</g>
		<path id="XMLID_29_" class="st2" d="M220.4,119.1c-6.7,0-13.6,2.9-18.7,8.6c-9,9.9-9.2,24.4-0.5,32.6c-4.3-4.1-4.2-12.8,0.1-21
			c0.5-0.6,1.6-1.9,3.4-1.9c0.4,0,0.8,0.1,1.2,0.2c0.2,0.1,0.3,0.1,0.4,0.1c0,0,0,0,0.1,0c0.5,0.1,0.9,0.2,1.4,0.2
			c0.1,0,0.2,0,0.2,0c3.6-0.2,6.4-3.2,6.2-6.8c-0.1-1.6-0.7-3-1.8-4.1c4.9-3.2,10.2-4.8,14.6-4.8c3.1,0,5.6,0.8,7.3,2.2l0.2,0
			C230.6,120.8,225.6,119.1,220.4,119.1z"/>
		<path id="XMLID_3_" class="st2" d="M225.8,227c-6.7,0-13.6,2.9-18.7,8.6c-9,9.9-9.2,24.4-0.5,32.7c-4.3-4.1-4.2-12.8,0.1-21
			c0.5-0.6,1.6-1.9,3.4-1.9c0.4,0,0.8,0.1,1.2,0.2c0.2,0.1,0.3,0.1,0.4,0.1c0,0,0,0,0.1,0c0.5,0.1,0.9,0.2,1.4,0.2
			c0.1,0,0.1,0,0.2,0c3.6-0.2,6.4-3.2,6.2-6.8c-0.1-1.6-0.7-3-1.8-4.1c4.9-3.2,10.2-4.8,14.6-4.8c3.1,0,5.6,0.8,7.3,2.2l0.1,0
			C235.9,228.7,230.9,227,225.8,227z"/>
	</g>
	<g id="XMLID_20_">
		<path id="XMLID_34_" class="st3" d="M302.8,287.7c-2.3-2.4-5-4.5-8-6.1c-1.1-0.6-2.1-1-3.2-1.5c0,0-6.1-3.1-6.8-25.4
			c-0.2-7.5-0.3-16.5,3.4-23.3c0.5-1,1.1-1.9,2-2.6c4.3-3.7,9-6.2,12.2-11.1c3.2-5,4.9-10.8,4.9-16.7c0-25.8-31.5-40.3-51.2-23.7
			c-3,2.5-5.5,5.7-7.4,9.1c-3.3,6.2-4.2,13-3.2,19.5c0,0,1.5,7.5-17.5,19.3c-16.8,10.4-25,7.6-26.6,6.9c-4.8-3-10.5-4.8-16.6-4.8
			c-25.9,0-40.3,31.6-23.6,51.2c2.5,3,5.6,5.5,9.1,7.3c11.3,6,24.6,4.3,34-3.2c0,0,6.7-5.3,26.6,5.4c15.7,8.4,18,16.7,18.3,19.8
			c0.8,8.4,2.1,15.6,8.1,22.1c16.3,17.8,45.4,10.2,52.2-12.4C312.6,307.7,310.9,296.3,302.8,287.7z M199.5,238.8
			c-3.9-3.6-13.5-3-21.8,2.5c1,1.1,1.7,2.5,1.8,4.1c0.2,3.6-2.6,6.6-6.2,6.8c-0.6,0-1.1,0-1.7-0.2c-0.1,0-0.3,0-0.5-0.1
			c-2.4-0.8-4,1-4.6,1.7c-4.3,8.3-4.4,16.9-0.1,21c-8.7-8.2-8.5-22.8,0.5-32.6c9.1-10,23.8-11.4,32.7-3.3L199.5,238.8z M257.7,183.6
			c9.1-10,23.8-11.4,32.7-3.3l-0.2,0c-3.9-3.6-13.5-3-21.8,2.5c1,1.1,1.7,2.5,1.8,4.1c0.2,3.6-2.6,6.6-6.2,6.8c-0.6,0-1.1,0-1.7-0.2
			c-0.1,0-0.2,0-0.5-0.1c-2.4-0.8-4,1-4.5,1.7c-4.3,8.3-4.4,16.9-0.1,21C248.5,208,248.7,193.5,257.7,183.6z M235,279.5
			c-16.3-8.8-18.8-16.1-19.1-18.3c0.2-2.7,0.1-5.3-0.4-7.9l0.1,0.2c0,0-1.3-7.1,17.4-18.7c16.7-10.4,24.4-8.3,25.8-7.8
			c0.9,0.6,1.9,1.2,2.8,1.7c1.9,1,3.8,1.8,5.8,2.4c2.3,2.2,6.5,8.4,7,24.8c0.5,16.5-4.4,22.9-7,25.1c-2.7,1.2-5.3,2.9-7.6,4.9
			C257.3,286.6,250.1,287.6,235,279.5z M295.6,288.3c-3.9-3.6-13.5-3-21.8,2.5c1,1.1,1.7,2.5,1.8,4.1c0.2,3.6-2.6,6.6-6.2,6.8
			c-0.6,0-1.1,0-1.7-0.2c-0.1,0-0.2,0-0.5-0.1c-2.4-0.8-4,0.9-4.6,1.7c-4.3,8.3-4.4,16.9-0.1,21c-8.7-8.2-8.5-22.8,0.5-32.7
			c9.1-10,23.8-11.4,32.7-3.3L295.6,288.3z"/>
		<g id="XMLID_23_">
			<path id="XMLID_30_" class="st2" d="M307.1,283.6c-2.8-2.9-6-5.4-9.5-7.3c-0.9-0.5-1.8-0.9-2.8-1.3c-0.8-1.2-3.6-6.1-4-20.4
				c-0.2-5.8-0.4-14.6,2.7-20.3c0.4-0.7,0.6-0.9,0.6-1c1.1-0.9,2.3-1.8,3.6-2.8c3.3-2.5,7-5.2,9.7-9.6c3.8-6,5.9-12.9,5.9-19.9
				c0-22.7-19.6-36.7-37.8-36.7c-8.6,0-16.6,2.9-23.2,8.5c-3.6,3-6.5,6.7-8.8,10.9c-3.7,7-5.1,14.8-3.9,22.7
				c-0.2,0.9-2.1,6-14.7,13.8c-9.7,6-15.7,6.9-18.4,6.9c-1.3,0-2.1-0.2-2.4-0.3c-5.8-3.6-12.5-5.5-19.3-5.5
				c-14.3,0-26.9,8.3-33.1,21.6c-6.2,13.4-4.3,28.5,5,39.4c3,3.6,6.7,6.5,10.8,8.7c5.3,2.8,11.3,4.3,17.3,4.3
				c8.2,0,16.3-2.8,22.8-7.8c0.3-0.1,1.1-0.3,2.4-0.3c3.1,0,8.8,1,18,6c13.8,7.4,15.1,13.9,15.2,15.1c0.8,8.5,2.2,17.5,9.6,25.6
				c6.9,7.6,16.4,11.8,26.6,11.8c7.7,0,15.4-2.5,21.8-7c6.7-4.8,11.6-11.5,14-19.5C319.2,306.5,316.1,293.2,307.1,283.6z
				 M309.6,317.7c-4.2,14-17.1,22.2-30.1,22.2c-8,0-16-3.1-22.2-9.8c-6-6.5-7.3-13.7-8.1-22.1c-0.3-3.1-2.6-11.4-18.3-19.8
				c-10-5.4-16.6-6.7-20.8-6.7c-4.1,0-5.8,1.3-5.8,1.3c-5.5,4.4-12.4,6.8-19.4,6.8c-4.9,0-9.9-1.2-14.5-3.6
				c-3.4-1.8-6.5-4.3-9.1-7.3c-16.7-19.6-2.3-51.2,23.6-51.2c6.1,0,11.8,1.8,16.6,4.8c0.6,0.3,2.3,0.9,5.1,0.9
				c4.3,0,11.3-1.5,21.5-7.8c18.9-11.8,17.5-19.3,17.5-19.3c-1-6.5-0.1-13.3,3.2-19.5c1.8-3.5,4.3-6.6,7.4-9.1
				c5.8-4.9,12.6-7.1,19.4-7.1c16.1,0,31.8,12.6,31.8,30.8c0,5.9-1.7,11.7-4.9,16.7c-3.1,4.9-7.9,7.4-12.2,11.1
				c-0.8,0.7-1.4,1.6-2,2.6c-3.7,6.8-3.6,15.8-3.4,23.3c0.6,22.3,6.8,25.4,6.8,25.4c1.1,0.4,2.2,0.9,3.2,1.5c3,1.6,5.7,3.6,8,6.1
				C310.9,296.3,312.6,307.7,309.6,317.7z"/>
			<path id="XMLID_27_" class="st2" d="M166.9,242.1c-9,9.9-9.2,24.4-0.5,32.6c-4.3-4.1-4.2-12.8,0.1-21c0.5-0.6,1.6-1.9,3.4-1.9
				c0.4,0,0.8,0.1,1.2,0.2c0.2,0.1,0.3,0.1,0.4,0.1c0,0,0,0,0.1,0c0.5,0.1,0.9,0.2,1.4,0.2c0.1,0,0.2,0,0.2,0
				c3.6-0.2,6.4-3.2,6.2-6.8c-0.1-1.6-0.7-3-1.8-4.1c4.9-3.2,10.2-4.8,14.6-4.8c3.1,0,5.6,0.8,7.3,2.2l0.1,0
				c-3.9-3.6-8.9-5.3-14-5.3C179,233.5,172,236.4,166.9,242.1z"/>
			<path id="XMLID_24_" class="st2" d="M267.3,280.8c2.6-2.2,7.5-8.6,7-25.1c-0.4-16.4-4.7-22.6-7-24.8c-2-0.6-3.9-1.4-5.8-2.4
				c-1-0.5-1.9-1.1-2.8-1.7c-0.5-0.2-1.6-0.5-3.6-0.5c-3.9,0-11,1.4-22.2,8.3c-18.7,11.6-17.4,18.7-17.4,18.7l-0.1-0.2
				c0.5,2.6,0.6,5.3,0.4,7.9c0.4,2.2,2.8,9.5,19.1,18.3c10.2,5.5,16.8,6.8,20.8,6.8c1.9,0,3.2-0.3,4-0.6
				C262.1,283.7,264.6,282.1,267.3,280.8z M255.8,280.4c-2.5,0-8.1-0.8-18-6.1c-8.3-4.5-12.3-8.3-14.3-10.8l-1.9-10.4
				c0.4-1.1,2.5-5.9,14.5-13.3c10.4-6.5,16.4-7.4,19-7.4c0.5,0,0.9,0,1.1,0.1c0.8,0.5,1.7,1,2.5,1.5c1.7,0.9,3.4,1.7,5.2,2.3
				c1.4,1.9,4.1,7.3,4.4,19.8c0.4,13.2-2.9,18.3-4.5,20c-2.5,1.2-4.8,2.7-6.9,4.4C256.7,280.3,256.3,280.4,255.8,280.4z"/>
		</g>
		<path id="XMLID_22_" class="st2" d="M276.5,175.1c-6.7,0-13.6,2.9-18.7,8.6c-9,9.9-9.2,24.4-0.5,32.6c-4.3-4.1-4.2-12.8,0.1-21
			c0.5-0.6,1.6-1.9,3.4-1.9c0.4,0,0.8,0.1,1.2,0.2c0.2,0.1,0.3,0.1,0.4,0.1c0,0,0,0,0.1,0c0.5,0.1,0.9,0.2,1.4,0.2
			c0.1,0,0.2,0,0.2,0c3.6-0.2,6.4-3.2,6.2-6.8c-0.1-1.6-0.7-3-1.8-4.1c4.9-3.2,10.2-4.8,14.6-4.8c3.1,0,5.6,0.8,7.3,2.2l0.2,0
			C286.6,176.8,281.6,175.1,276.5,175.1z"/>
		<path id="XMLID_21_" class="st2" d="M281.8,283c-6.7,0-13.6,2.9-18.7,8.6c-9,9.9-9.2,24.4-0.5,32.7c-4.3-4.1-4.2-12.8,0.1-21
			c0.5-0.6,1.6-1.9,3.4-1.9c0.4,0,0.8,0.1,1.2,0.2c0.2,0.1,0.3,0.1,0.4,0.1c0,0,0,0,0.1,0c0.5,0.1,0.9,0.2,1.4,0.2
			c0.1,0,0.1,0,0.2,0c3.6-0.2,6.4-3.2,6.2-6.8c-0.1-1.6-0.7-3-1.8-4.1c4.9-3.2,10.2-4.8,14.6-4.8c3.1,0,5.6,0.8,7.3,2.2l0.1,0
			C291.9,284.7,286.9,283,281.8,283z"/>
	</g>
	<g id="XMLID_2_">
		<path id="XMLID_14_" class="st3" d="M358.8,343.7c-2.3-2.4-5-4.5-8-6.1c-1.1-0.6-2.1-1-3.2-1.5c0,0-6.1-3.1-6.8-25.4
			c-0.2-7.5-0.3-16.5,3.4-23.3c0.5-1,1.1-1.9,2-2.6c4.3-3.7,9-6.2,12.2-11.1c3.2-5,4.9-10.8,4.9-16.7c0-25.8-31.5-40.3-51.2-23.7
			c-3,2.5-5.5,5.7-7.4,9.1c-3.3,6.2-4.2,13-3.2,19.5c0,0,1.5,7.5-17.5,19.3c-16.8,10.4-25,7.6-26.6,6.9c-4.8-3-10.5-4.8-16.6-4.8
			c-25.9,0-40.3,31.6-23.6,51.2c2.5,3,5.6,5.5,9.1,7.3c11.3,6,24.6,4.3,34-3.2c0,0,6.7-5.3,26.6,5.4c15.7,8.4,18,16.7,18.3,19.8
			c0.8,8.4,2.1,15.6,8.1,22.1c16.3,17.8,45.4,10.2,52.2-12.4C368.6,363.7,366.9,352.3,358.8,343.7z M255.5,294.8
			c-3.9-3.6-13.5-3-21.8,2.5c1,1.1,1.7,2.5,1.8,4.1c0.2,3.6-2.6,6.6-6.2,6.8c-0.6,0-1.1,0-1.7-0.2c-0.1,0-0.3,0-0.5-0.1
			c-2.4-0.8-4,1-4.6,1.7c-4.3,8.3-4.4,16.9-0.1,21c-8.7-8.2-8.5-22.8,0.5-32.6c9.1-10,23.8-11.4,32.7-3.3L255.5,294.8z M313.7,239.6
			c9.1-10,23.8-11.4,32.7-3.3l-0.2,0c-3.9-3.6-13.5-3-21.8,2.5c1,1.1,1.7,2.5,1.8,4.1c0.2,3.6-2.6,6.6-6.2,6.8c-0.6,0-1.1,0-1.7-0.2
			c-0.1,0-0.2,0-0.5-0.1c-2.4-0.8-4,1-4.5,1.7c-4.3,8.3-4.4,16.9-0.1,21C304.5,264.1,304.7,249.5,313.7,239.6z M291,335.5
			c-16.3-8.8-18.8-16.1-19.1-18.3c0.2-2.7,0.1-5.3-0.4-7.9l0.1,0.2c0,0-1.3-7.1,17.4-18.7c16.7-10.4,24.4-8.3,25.8-7.8
			c0.9,0.6,1.9,1.2,2.8,1.7c1.9,1,3.8,1.8,5.8,2.4c2.3,2.2,6.5,8.4,7,24.8c0.5,16.5-4.4,22.9-7,25.1c-2.7,1.2-5.3,2.9-7.6,4.9
			C313.3,342.6,306.1,343.6,291,335.5z M351.6,344.3c-3.9-3.6-13.5-3-21.8,2.5c1,1.1,1.7,2.5,1.8,4.1c0.2,3.6-2.6,6.6-6.2,6.8
			c-0.6,0-1.1,0-1.7-0.2c-0.1,0-0.2,0-0.5-0.1c-2.4-0.8-4,0.9-4.6,1.7c-4.3,8.3-4.4,16.9-0.1,21c-8.7-8.2-8.5-22.8,0.5-32.7
			c9.1-10,23.8-11.4,32.7-3.3L351.6,344.3z"/>
		<g id="XMLID_6_">
			<path id="XMLID_11_" class="st2" d="M363.1,339.6c-2.8-2.9-6-5.4-9.5-7.3c-0.9-0.5-1.8-0.9-2.8-1.3c-0.8-1.2-3.6-6.1-4-20.4
				c-0.2-5.8-0.4-14.6,2.7-20.3c0.4-0.7,0.6-0.9,0.6-1c1.1-0.9,2.3-1.8,3.6-2.8c3.3-2.5,7-5.2,9.7-9.6c3.8-6,5.9-12.9,5.9-19.9
				c0-22.7-19.6-36.7-37.8-36.7c-8.6,0-16.6,2.9-23.2,8.5c-3.6,3-6.5,6.7-8.8,10.9c-3.7,7-5.1,14.8-3.9,22.7
				c-0.2,0.9-2.1,6-14.7,13.8c-9.7,6-15.7,6.9-18.4,6.9c-1.3,0-2.1-0.2-2.4-0.3c-5.8-3.6-12.5-5.5-19.3-5.5
				c-14.3,0-26.9,8.3-33.1,21.6c-6.2,13.4-4.3,28.5,5,39.4c3,3.6,6.7,6.5,10.8,8.7c5.3,2.8,11.3,4.3,17.3,4.3
				c8.2,0,16.3-2.8,22.8-7.8c0.3-0.1,1.1-0.3,2.4-0.3c3.1,0,8.8,1,18,6c13.8,7.4,15.1,13.9,15.2,15.1c0.8,8.5,2.2,17.5,9.6,25.6
				c6.9,7.6,16.4,11.8,26.6,11.8c7.7,0,15.4-2.5,21.8-7c6.7-4.8,11.6-11.5,14-19.5C375.2,362.6,372.1,349.2,363.1,339.6z
				 M365.6,373.7c-4.2,14-17.1,22.2-30.1,22.2c-8,0-16-3.1-22.2-9.8c-6-6.5-7.3-13.7-8.1-22.1c-0.3-3.1-2.6-11.4-18.3-19.8
				c-10-5.4-16.6-6.7-20.8-6.7c-4.1,0-5.8,1.3-5.8,1.3c-5.5,4.4-12.4,6.8-19.4,6.8c-4.9,0-9.9-1.2-14.5-3.6
				c-3.4-1.8-6.5-4.3-9.1-7.3c-16.7-19.6-2.3-51.2,23.6-51.2c6.1,0,11.8,1.8,16.6,4.8c0.6,0.3,2.3,0.9,5.1,0.9
				c4.3,0,11.3-1.5,21.5-7.8c18.9-11.8,17.5-19.3,17.5-19.3c-1-6.5-0.1-13.3,3.2-19.5c1.8-3.5,4.3-6.6,7.4-9.1
				c5.8-4.9,12.6-7.1,19.4-7.1c16.1,0,31.8,12.6,31.8,30.8c0,5.9-1.7,11.7-4.9,16.7c-3.1,4.9-7.9,7.4-12.2,11.1
				c-0.8,0.7-1.4,1.6-2,2.6c-3.7,6.8-3.6,15.8-3.4,23.3c0.6,22.3,6.8,25.4,6.8,25.4c1.1,0.4,2.2,0.9,3.2,1.5c3,1.6,5.7,3.6,8,6.1
				C366.9,352.3,368.6,363.7,365.6,373.7z"/>
			<path id="XMLID_10_" class="st2" d="M222.9,298.1c-9,9.9-9.2,24.4-0.5,32.6c-4.3-4.1-4.2-12.8,0.1-21c0.5-0.6,1.6-1.9,3.4-1.9
				c0.4,0,0.8,0.1,1.2,0.2c0.2,0.1,0.3,0.1,0.4,0.1c0,0,0,0,0.1,0c0.5,0.1,0.9,0.2,1.4,0.2c0.1,0,0.2,0,0.2,0
				c3.6-0.2,6.4-3.2,6.2-6.8c-0.1-1.6-0.7-3-1.8-4.1c4.9-3.2,10.2-4.8,14.6-4.8c3.1,0,5.6,0.8,7.3,2.2l0.1,0
				c-3.9-3.6-8.9-5.3-14-5.3C235,289.5,228,292.4,222.9,298.1z"/>
			<path id="XMLID_7_" class="st2" d="M323.3,336.9c2.6-2.2,7.5-8.6,7-25.1c-0.4-16.4-4.7-22.6-7-24.8c-2-0.6-3.9-1.4-5.8-2.4
				c-1-0.5-1.9-1.1-2.8-1.7c-0.5-0.2-1.6-0.5-3.6-0.5c-3.9,0-11,1.4-22.2,8.3c-18.7,11.6-17.4,18.7-17.4,18.7l-0.1-0.2
				c0.5,2.6,0.6,5.3,0.4,7.9c0.4,2.2,2.8,9.5,19.1,18.3c10.2,5.5,16.8,6.8,20.8,6.8c1.9,0,3.2-0.3,4-0.6
				C318.1,339.7,320.6,338.1,323.3,336.9z M311.8,336.4c-2.5,0-8.1-0.8-18-6.1c-8.3-4.5-12.3-8.3-14.3-10.8l-1.9-10.4
				c0.4-1.1,2.5-5.9,14.5-13.3c10.4-6.5,16.4-7.4,19-7.4c0.5,0,0.9,0,1.1,0.1c0.8,0.5,1.7,1,2.5,1.5c1.7,0.9,3.4,1.7,5.2,2.3
				c1.4,1.9,4.1,7.3,4.4,19.8c0.4,13.2-2.9,18.3-4.5,20c-2.5,1.2-4.8,2.7-6.9,4.4C312.7,336.3,312.3,336.4,311.8,336.4z"/>
		</g>
		<path id="XMLID_5_" class="st2" d="M332.5,231.1c-6.7,0-13.6,2.9-18.7,8.6c-9,9.9-9.2,24.4-0.5,32.6c-4.3-4.1-4.2-12.8,0.1-21
			c0.5-0.6,1.6-1.9,3.4-1.9c0.4,0,0.8,0.1,1.2,0.2c0.2,0.1,0.3,0.1,0.4,0.1c0,0,0,0,0.1,0c0.5,0.1,0.9,0.2,1.4,0.2
			c0.1,0,0.2,0,0.2,0c3.6-0.2,6.4-3.2,6.2-6.8c-0.1-1.6-0.7-3-1.8-4.1c4.9-3.2,10.2-4.8,14.6-4.8c3.1,0,5.6,0.8,7.3,2.2l0.2,0
			C342.6,232.8,337.6,231.1,332.5,231.1z"/>
		<path id="XMLID_4_" class="st2" d="M337.8,339c-6.7,0-13.6,2.9-18.7,8.6c-9,9.9-9.2,24.4-0.5,32.7c-4.3-4.1-4.2-12.8,0.1-21
			c0.5-0.6,1.6-1.9,3.4-1.9c0.4,0,0.8,0.1,1.2,0.2c0.2,0.1,0.3,0.1,0.4,0.1c0,0,0,0,0.1,0c0.5,0.1,0.9,0.2,1.4,0.2
			c0.1,0,0.1,0,0.2,0c3.6-0.2,6.4-3.2,6.2-6.8c-0.1-1.6-0.7-3-1.8-4.1c4.9-3.2,10.2-4.8,14.6-4.8c3.1,0,5.6,0.8,7.3,2.2l0.1,0
			C347.9,340.8,342.9,339,337.8,339z"/>
	</g>
</g>
</svg>
